<svg xmlns="http://www.w3.org/2000/svg" width="135" height="40" viewBox="0 0 135 40">
  <rect width="135" height="40" rx="8" fill="#000" />
  <path d="M26.7 14.7c-1 .6-1.7 1.6-1.9 2.8.7.1 1.4-.2 2-.6.6-.4 1-.9 1.2-1.6-.6-.2-1.2-.1-1.3-.6zM28.6 18.2c-1.2-.1-2.2.7-2.7.7-.6 0-1.4-.7-2.3-.7-1.2 0-2.4.7-3 1.8-1.3 2.2-.3 5.4.9 7.1.6.9 1.4 1.9 2.4 1.9.9 0 1.2-.6 2.4-.6 1.2 0 1.4.6 2.4.6 1 0 1.7-.9 2.3-1.9.8-1.2 1.1-2.4 1.1-2.5-.1-.1-2.1-.8-2.1-3.2 0-2 1.6-2.9 1.6-3-.1-.1-1.5-.7-3-.7z" fill="#fff"/>
  <text x="44" y="26" fill="#fff" font-family="'Segoe UI', 'Inter', sans-serif" font-size="12" font-weight="600">App Store</text>
</svg>
