<svg width="640" height="360" viewBox="0 0 640 360" fill="none" xmlns="http://www.w3.org/2000/svg">
  <defs>
    <linearGradient id="bg" x1="120" y1="40" x2="520" y2="320" gradientUnits="userSpaceOnUse">
      <stop stop-color="#E8FFF5" />
      <stop offset="0.5" stop-color="#EAF5FF" />
      <stop offset="1" stop-color="#FFF3DD" />
    </linearGradient>
  </defs>
  <rect x="8" y="8" width="624" height="344" rx="26" fill="url(#bg)" />
  <rect x="60" y="240" width="520" height="12" rx="6" fill="#DDE7F0" />
  <circle cx="210" cy="240" r="48" fill="#0D0F14" opacity="0.1" />
  <circle cx="210" cy="240" r="40" fill="#FFFFFF" stroke="#0D0F14" stroke-width="6" />
  <circle cx="430" cy="240" r="48" fill="#0D0F14" opacity="0.1" />
  <circle cx="430" cy="240" r="40" fill="#FFFFFF" stroke="#0D0F14" stroke-width="6" />
  <rect x="176" y="122" width="240" height="92" rx="18" fill="#0D0F14" />
  <rect x="190" y="134" width="112" height="68" rx="14" fill="#3BB273" />
  <rect x="314" y="134" width="86" height="68" rx="14" fill="#FFFFFF" />
  <rect x="312" y="118" width="94" height="18" rx="9" fill="#F5B400" />
  <rect x="170" y="214" width="220" height="32" rx="12" fill="#0D0F14" />
  <rect x="390" y="214" width="82" height="32" rx="12" fill="#0D0F14" />
  <rect x="470" y="170" width="30" height="46" rx="10" fill="#0D0F14" />
  <rect x="486" y="180" width="18" height="28" rx="6" fill="#FFFFFF" opacity="0.85" />
  <path d="M170 196H142C136 196 132 192 132 186V168C132 142 150 122 176 122H196" stroke="#0D0F14" stroke-width="8" stroke-linecap="round" />
  <rect x="214" y="184" width="38" height="10" rx="5" fill="#FFFFFF" />
  <rect x="344" y="184" width="30" height="10" rx="5" fill="#FFFFFF" />
</svg>
