<svg width="640" height="360" viewBox="0 0 640 360" fill="none" xmlns="http://www.w3.org/2000/svg">
  <defs>
    <linearGradient id="bg" x1="120" y1="40" x2="520" y2="320" gradientUnits="userSpaceOnUse">
      <stop stop-color="#E7FFF6" />
      <stop offset="0.5" stop-color="#EAF4FF" />
      <stop offset="1" stop-color="#FFF4E6" />
    </linearGradient>
  </defs>
  <rect x="8" y="8" width="624" height="344" rx="26" fill="url(#bg)" />
  <rect x="120" y="244" width="400" height="12" rx="6" fill="#DDE7F0" />
  <rect x="148" y="122" width="344" height="132" rx="22" fill="#FFFFFF" stroke="#0D0F14" stroke-width="6" />
  <rect x="186" y="150" width="96" height="24" rx="10" fill="#E8F2FF" />
  <rect x="186" y="186" width="156" height="16" rx="8" fill="#E8F2FF" />
  <rect x="186" y="210" width="134" height="12" rx="6" fill="#E8F2FF" />
  <circle cx="428" cy="182" r="52" fill="#F5B400" />
  <path d="M428 146V218" stroke="#0D0F14" stroke-width="6" stroke-linecap="round" />
  <path d="M396 178H460" stroke="#0D0F14" stroke-width="6" stroke-linecap="round" />
  <path d="M412 162L444 194" stroke="#0D0F14" stroke-width="6" stroke-linecap="round" />
  <path d="M444 162L412 194" stroke="#0D0F14" stroke-width="6" stroke-linecap="round" />
  <rect x="270" y="156" width="18" height="56" rx="8" fill="#3BB273" />
  <rect x="296" y="144" width="18" height="68" rx="8" fill="#0D0F14" />
  <rect x="322" y="170" width="18" height="42" rx="8" fill="#6AC8FF" />
</svg>
